<svg height="512pt" viewBox="0 -20 512 512" width="512pt" xmlns="http://www.w3.org/2000/svg"><path d="m69.878906 79.859375c0-11.027344 8.9375-19.964844 19.964844-19.964844s19.964844 8.9375 19.964844 19.964844-8.9375 19.964844-19.964844 19.964844-19.964844-8.9375-19.964844-19.964844zm89.839844 19.964844c11.027344 0 19.96875-8.9375 19.96875-19.964844s-8.941406-19.964844-19.96875-19.964844c-11.023438 0-19.964844 8.9375-19.964844 19.964844s8.941406 19.964844 19.964844 19.964844zm110.9375 218.617187c-1.886719 7.316406-4.804688 14.21875-8.5625 20.570313l25.347656 25.351562-28.234375 28.234375-25.351562-25.351562c-6.25 3.699218-13.039063 6.578125-20.230469 8.46875v35.566406h-39.929688v-35.390625c-7.441406-1.886719-14.460937-4.828125-20.90625-8.644531l-25.351562 25.351562-28.234375-28.234375 25.351563-25.351562c-3.757813-6.351563-6.675782-13.253907-8.566407-20.570313h-36.128906v-39.929687h36.132813c1.886718-7.3125 4.804687-14.21875 8.5625-20.566407l-25.351563-25.351562 28.238281-28.234375 25.347656 25.351563c6.449219-3.816407 13.46875-6.757813 20.90625-8.644532v-35.390625h39.933594v35.566407c7.1875 1.890624 13.980469 4.769531 20.230469 8.46875l25.351563-25.351563 28.234374 28.234375-25.351562 25.351562c3.757812 6.347657 6.675781 13.253907 8.5625 20.566407h35.808594v39.929687zm-77.332031 19.964844c22.015625 0 39.929687-17.910156 39.929687-39.929688 0-22.015624-17.914062-39.929687-39.929687-39.929687-8.574219 0-16.519531 2.726563-23.03125 7.34375l-9.558594 9.554687c-4.617187 6.515626-7.339844 14.457032-7.339844 23.03125 0 22.019532 17.910157 39.929688 39.929688 39.929688zm226.695312 52.664062 91.980469-91.984374-91.980469-91.980469-28.234375 28.234375 43.167969 43.171875h-88.558594v39.929687h89.78125l-44.390625 44.390625zm51.15625 5.3125 39.929688-39.929687v54.828125c0 33.023438-26.867188 59.894531-59.894531 59.894531h-391.316407c-33.027343 0-59.894531-26.871093-59.894531-59.894531v-351.386719c0-33.027343 26.867188-59.894531 59.894531-59.894531h391.316407c33.027343 0 59.894531 26.867188 59.894531 59.894531v181.828125l-39.929688-39.929687v-42.074219h-431.246093v251.5625c0 11.007812 8.957031 19.964844 19.964843 19.964844h391.316407c11.007812 0 19.964843-8.957032 19.964843-19.964844zm-431.246093-336.488281v59.894531h431.246093v-59.894531c0-11.007812-8.957031-19.964843-19.964843-19.964843h-391.316407c-11.007812 0-19.964843 8.957031-19.964843 19.964843zm0 0"/></svg>