<svg id="bold" enable-background="new 0 0 24 24" height="512" viewBox="0 0 24 24" width="512" xmlns="http://www.w3.org/2000/svg"><g><path d="m22.363 7.228-5.591-5.591c-.893-.893-2.396-.841-3.353.116l-9.932 9.932-.473.473-1.261 1.261c-.958.958-1.01 2.459-.116 3.353l5.591 5.591c.894.894 2.395.842 3.353-.116l1.261-1.261.473-.473 9.932-9.932c.957-.957 1.009-2.46.116-3.353zm-1.608 2.491-10.562 10.562-6.474-6.474 10.562-10.562c.435-.435 1.118-.458 1.524-.053l5.003 5.003c.405.406.382 1.089-.053 1.524z"/></g><g><path d="m23.17 13c-.002 0-.004 0-.007 0-.459 0-.832.37-.836.83-.026 3.239-1.884 6.071-4.581 7.504l-.882-1.079c-.149-.183-.37-.294-.606-.306-.235-.013-.466.077-.633.244l-2.38 2.38c-.24.24-.311.601-.18.914.13.311.435.513.771.513h.007c5.556-.044 10.113-4.601 10.157-10.157.003-.462-.368-.839-.83-.843z"/></g><g><path d="m10.164 0c-.002 0-.004 0-.007 0-5.556.044-10.113 4.601-10.157 10.157-.003.462.368.839.83.843h.007c.459 0 .832-.37.836-.83.026-3.239 1.884-6.071 4.581-7.504l.882 1.079c.149.183.37.294.606.306.235.013.466-.077.633-.244l2.38-2.38c.24-.24.311-.601.18-.914-.13-.311-.435-.513-.771-.513z"/></g></svg>